<svg width="906" height="192" viewBox="0 0 906 192" fill="none" xmlns="http://www.w3.org/2000/svg">
<path d="M86.0414 105.958C91.5406 111.457 100.457 111.457 105.956 105.958C111.455 100.459 111.455 91.5425 105.956 86.0433C100.457 80.5441 91.5406 80.5441 86.0414 86.0433C80.5422 91.5425 80.5422 100.459 86.0414 105.958Z" fill="#2DA7C7"/>
<path d="M48.0004 144C53.4996 149.499 62.4156 149.499 67.9148 144C73.4141 138.501 73.4141 129.585 67.9148 124.086C62.4156 118.586 53.4996 118.586 48.0004 124.086C42.5012 129.585 42.5012 138.501 48.0004 144Z" fill="#2DA7C7"/>
<path d="M9.95734 105.956C15.4565 111.455 24.3723 111.455 29.8714 105.956C35.3705 100.457 35.3705 91.5412 29.8714 86.042C24.3723 80.5429 15.4565 80.5429 9.95734 86.042C4.45823 91.5412 4.45823 100.457 9.95734 105.956Z" fill="#2DA7C7"/>
<path d="M47.9984 67.9148C53.4977 73.414 62.4137 73.414 67.9129 67.9148C73.4121 62.4155 73.4121 53.4995 67.9129 48.0003C62.4137 42.5011 53.4977 42.5011 47.9984 48.0003C42.4992 53.4995 42.4992 62.4155 47.9984 67.9148Z" fill="#2DA7C7"/>
<path d="M124.084 67.9149C129.583 73.4142 138.499 73.4142 143.998 67.9149C149.498 62.4156 149.498 53.4995 143.998 48.0002C138.499 42.501 129.583 42.501 124.084 48.0003C118.584 53.4996 118.584 62.4156 124.084 67.9149Z" fill="#2DA7C7"/>
<path d="M86.0413 29.8711C91.5404 35.3702 100.456 35.3702 105.955 29.8711C111.454 24.3719 111.454 15.4561 105.955 9.95697C100.456 4.45786 91.5404 4.45786 86.0413 9.95697C80.5422 15.4561 80.5422 24.3719 86.0413 29.8711Z" fill="#2DA7C7"/>
<path d="M86.0433 182.043C91.5424 187.542 100.458 187.542 105.957 182.043C111.456 176.544 111.456 167.628 105.957 162.129C100.458 156.629 91.5424 156.629 86.0433 162.129C80.5441 167.628 80.5441 176.544 86.0433 182.043Z" fill="#2DA7C7"/>
<path d="M124.084 144.001C129.583 149.5 138.499 149.5 143.998 144.001C149.497 138.502 149.497 129.586 143.998 124.087C138.499 118.588 129.583 118.588 124.084 124.087C118.585 129.586 118.585 138.502 124.084 144.001Z" fill="#2DA7C7"/>
<path d="M162.128 105.958C167.627 111.457 176.543 111.457 182.042 105.958C187.541 100.459 187.541 91.5425 182.042 86.0433C176.543 80.5441 167.627 80.5441 162.128 86.0433C156.629 91.5425 156.628 100.459 162.128 105.958Z" fill="#2DA7C7"/>
<path fill-rule="evenodd" clip-rule="evenodd" d="M67.8988 48.0049C69.9531 50.0591 71.1424 52.4378 71.683 55.0326C72.3317 49.7348 74.6022 44.6532 78.7108 40.6528C82.7112 36.6524 87.7928 34.2737 93.0906 33.625C90.4958 33.0844 88.009 31.787 86.0629 29.8409C84.0086 27.7866 82.8193 25.408 82.2787 22.8131C81.63 28.111 79.3595 33.1926 75.2509 37.193C71.2505 41.1934 66.1689 43.572 60.8711 44.2207C63.466 44.7613 65.9527 46.0587 67.8988 48.0049Z" fill="#2DA7C7"/>
<path fill-rule="evenodd" clip-rule="evenodd" d="M55.032 71.683C52.4372 71.1424 49.9504 69.845 48.0043 67.8988C45.95 65.8446 44.7607 63.466 44.2201 60.8711C43.5714 66.1689 41.3009 71.2505 37.1924 75.2509C33.1919 79.2514 28.1103 81.63 22.8125 82.2787C25.4074 82.8193 27.8941 84.1167 29.8402 86.0629C31.8945 88.1171 33.0838 90.4958 33.6244 93.0906C34.2731 87.7928 36.5436 82.7112 40.6522 78.7108C44.6526 74.7104 49.7342 72.3317 55.032 71.683Z" fill="#2DA7C7"/>
<path fill-rule="evenodd" clip-rule="evenodd" d="M40.6522 113.309C36.6518 109.309 34.2731 104.227 33.6244 98.9291C33.0838 101.524 31.7864 104.011 29.8402 105.957C27.786 108.011 25.4074 109.2 22.8125 109.741C28.1103 110.39 33.1919 112.66 37.1924 116.769C41.1928 120.769 43.5714 125.851 44.2201 131.149C44.7607 128.554 46.0581 126.067 48.0043 124.121C50.0585 122.067 52.4372 120.877 55.032 120.337C49.7342 119.688 44.6526 117.417 40.6522 113.309Z" fill="#2DA7C7"/>
<path fill-rule="evenodd" clip-rule="evenodd" d="M71.683 136.987C71.1424 139.582 69.845 142.069 67.8988 144.015C65.8446 146.069 63.466 147.258 60.8711 147.799C66.1689 148.448 71.2505 150.718 75.2509 154.827C79.2514 158.827 81.63 163.909 82.2787 169.207C82.8193 166.612 84.1167 164.125 86.0629 162.179C88.1171 160.125 90.4958 158.935 93.0906 158.395C87.7928 157.746 82.7112 155.475 78.7108 151.367C74.7104 147.367 72.3317 142.285 71.683 136.987Z" fill="#2DA7C7"/>
<path fill-rule="evenodd" clip-rule="evenodd" d="M120.336 136.987C119.688 142.285 117.417 147.367 113.309 151.367C109.308 155.367 104.227 157.746 98.9287 158.395C101.524 158.935 104.01 160.233 105.956 162.179C108.011 164.233 109.2 166.612 109.741 169.207C110.389 163.909 112.66 158.827 116.768 154.827C120.769 150.826 125.85 148.448 131.148 147.799C128.553 147.258 126.067 145.961 124.12 144.015C122.066 141.961 120.877 139.582 120.336 136.987Z" fill="#2DA7C7"/>
<path fill-rule="evenodd" clip-rule="evenodd" d="M136.986 120.337C139.581 120.877 142.068 122.175 144.014 124.121C146.068 126.175 147.258 128.554 147.798 131.149C148.447 125.851 150.717 120.769 154.826 116.769C158.826 112.768 163.908 110.39 169.206 109.741C166.611 109.2 164.124 107.903 162.178 105.957C160.124 103.903 158.935 101.524 158.394 98.9291C157.745 104.227 155.475 109.309 151.366 113.309C147.366 117.309 142.284 119.688 136.986 120.337Z" fill="#2DA7C7"/>
<path fill-rule="evenodd" clip-rule="evenodd" d="M151.366 78.7108C155.367 82.7112 157.745 87.7928 158.394 93.0906C158.935 90.4958 160.232 88.009 162.178 86.0629C164.232 84.0086 166.611 82.8193 169.206 82.2787C163.908 81.63 158.826 79.3595 154.826 75.2509C150.826 71.2505 148.447 66.1689 147.798 60.8711C147.258 63.466 145.96 65.9527 144.014 67.8988C141.96 69.9531 139.581 71.1424 136.986 71.683C142.284 72.3317 147.366 74.6022 151.366 78.7108Z" fill="#2DA7C7"/>
<path fill-rule="evenodd" clip-rule="evenodd" d="M109.741 93.0906C110.389 87.7928 112.66 82.7112 116.768 78.7108C120.769 74.7104 125.85 72.3317 131.148 71.683C128.553 71.1424 126.067 69.845 124.12 67.8988C122.066 65.8446 120.877 63.466 120.336 60.8711C119.688 66.1689 117.417 71.2505 113.309 75.2509C109.308 79.2514 104.227 81.63 98.9287 82.2787C101.524 82.8193 104.01 84.1167 105.956 86.0629C108.011 88.1171 109.2 90.4958 109.741 93.0906Z" fill="#2DA7C7"/>
<path d="M294.984 77.64C292.68 73.2027 289.48 69.8747 285.384 67.656C281.288 65.352 276.552 64.2 271.176 64.2C265.288 64.2 260.04 65.5227 255.432 68.168C250.824 70.8133 247.197 74.568 244.552 79.432C241.992 84.296 240.712 89.928 240.712 96.328C240.712 102.728 241.992 108.403 244.552 113.352C247.197 118.216 250.824 121.971 255.432 124.616C260.04 127.261 265.288 128.584 271.176 128.584C279.112 128.584 285.555 126.365 290.504 121.928C295.453 117.491 298.483 111.475 299.592 103.88H266.184V92.232H315.208V103.624C314.269 110.536 311.795 116.893 307.784 122.696C303.859 128.499 298.696 133.149 292.296 136.648C285.981 140.061 278.941 141.768 271.176 141.768C262.813 141.768 255.176 139.848 248.264 136.008C241.352 132.083 235.848 126.664 231.752 119.752C227.741 112.84 225.736 105.032 225.736 96.328C225.736 87.624 227.741 79.816 231.752 72.904C235.848 65.992 241.352 60.616 248.264 56.776C255.261 52.8507 262.899 50.888 271.176 50.888C280.648 50.888 289.053 53.2347 296.392 57.928C303.816 62.536 309.192 69.1067 312.52 77.64H294.984ZM322.176 105.416C322.176 98.3333 323.627 92.0613 326.528 86.6C329.515 81.1387 333.525 76.9147 338.56 73.928C343.68 70.856 349.312 69.32 355.456 69.32C361.003 69.32 365.824 70.4293 369.92 72.648C374.101 74.7813 377.429 77.4693 379.904 80.712V70.472H394.624V141H379.904V130.504C377.429 133.832 374.059 136.605 369.792 138.824C365.525 141.043 360.661 142.152 355.2 142.152C349.141 142.152 343.595 140.616 338.56 137.544C333.525 134.387 329.515 130.035 326.528 124.488C323.627 118.856 322.176 112.499 322.176 105.416ZM379.904 105.672C379.904 100.808 378.88 96.584 376.832 93C374.869 89.416 372.267 86.6853 369.024 84.808C365.781 82.9307 362.283 81.992 358.528 81.992C354.773 81.992 351.275 82.9307 348.032 84.808C344.789 86.6 342.144 89.288 340.096 92.872C338.133 96.3707 337.152 100.552 337.152 105.416C337.152 110.28 338.133 114.547 340.096 118.216C342.144 121.885 344.789 124.701 348.032 126.664C351.36 128.541 354.859 129.48 358.528 129.48C362.283 129.48 365.781 128.541 369.024 126.664C372.267 124.787 374.869 122.056 376.832 118.472C378.88 114.803 379.904 110.536 379.904 105.672ZM428.254 82.376V121.416C428.254 124.061 428.851 125.981 430.046 127.176C431.326 128.285 433.459 128.84 436.446 128.84H445.406V141H433.886C427.315 141 422.281 139.464 418.782 136.392C415.283 133.32 413.534 128.328 413.534 121.416V82.376H405.214V70.472H413.534V52.936H428.254V70.472H445.406V82.376H428.254ZM492.775 69.32C498.151 69.32 502.93 70.472 507.111 72.776C511.378 75.08 514.706 78.4933 517.095 83.016C519.57 87.5387 520.807 93 520.807 99.4V141H506.343V101.576C506.343 95.2613 504.764 90.44 501.607 87.112C498.45 83.6987 494.14 81.992 488.679 81.992C483.218 81.992 478.866 83.6987 475.623 87.112C472.466 90.44 470.887 95.2613 470.887 101.576V141H456.295V46.28H470.887V78.664C473.362 75.6773 476.476 73.3733 480.231 71.752C484.071 70.1307 488.252 69.32 492.775 69.32ZM601.5 104.008C601.5 106.653 601.329 109.043 600.988 111.176H547.1C547.527 116.808 549.617 121.331 553.372 124.744C557.127 128.157 561.735 129.864 567.196 129.864C575.047 129.864 580.593 126.579 583.836 120.008H599.58C597.447 126.493 593.564 131.827 587.932 136.008C582.385 140.104 575.473 142.152 567.196 142.152C560.455 142.152 554.396 140.659 549.02 137.672C543.729 134.6 539.548 130.333 536.476 124.872C533.489 119.325 531.996 112.925 531.996 105.672C531.996 98.4187 533.447 92.0613 536.348 86.6C539.335 81.0533 543.473 76.7867 548.764 73.8C554.14 70.8133 560.284 69.32 567.196 69.32C573.852 69.32 579.783 70.7707 584.988 73.672C590.193 76.5733 594.247 80.6693 597.148 85.96C600.049 91.1653 601.5 97.1813 601.5 104.008ZM586.268 99.4C586.183 94.024 584.263 89.7147 580.508 86.472C576.753 83.2293 572.103 81.608 566.556 81.608C561.521 81.608 557.212 83.2293 553.628 86.472C550.044 89.6293 547.911 93.9387 547.228 99.4H586.268ZM627.892 80.712C630.025 77.128 632.841 74.3547 636.34 72.392C639.924 70.344 644.148 69.32 649.012 69.32V84.424H645.3C639.583 84.424 635.231 85.8747 632.244 88.776C629.343 91.6773 627.892 96.712 627.892 103.88V141H613.3V70.472H627.892V80.712ZM674.457 46.28V141H659.865V46.28H674.457ZM721.647 142.152C714.991 142.152 708.975 140.659 703.599 137.672C698.223 134.6 693.999 130.333 690.927 124.872C687.855 119.325 686.319 112.925 686.319 105.672C686.319 98.504 687.898 92.1467 691.055 86.6C694.212 81.0533 698.522 76.7867 703.983 73.8C709.444 70.8133 715.546 69.32 722.287 69.32C729.028 69.32 735.13 70.8133 740.591 73.8C746.052 76.7867 750.362 81.0533 753.519 86.6C756.676 92.1467 758.255 98.504 758.255 105.672C758.255 112.84 756.634 119.197 753.391 124.744C750.148 130.291 745.711 134.6 740.079 137.672C734.532 140.659 728.388 142.152 721.647 142.152ZM721.647 129.48C725.402 129.48 728.9 128.584 732.143 126.792C735.471 125 738.159 122.312 740.207 118.728C742.255 115.144 743.279 110.792 743.279 105.672C743.279 100.552 742.298 96.2427 740.335 92.744C738.372 89.16 735.77 86.472 732.527 84.68C729.284 82.888 725.786 81.992 722.031 81.992C718.276 81.992 714.778 82.888 711.535 84.68C708.378 86.472 705.86 89.16 703.983 92.744C702.106 96.2427 701.167 100.552 701.167 105.672C701.167 113.267 703.087 119.155 706.927 123.336C710.852 127.432 715.759 129.48 721.647 129.48ZM782.792 142.152C776.136 142.152 770.12 140.659 764.744 137.672C759.368 134.6 755.144 130.333 752.072 124.872C749 119.325 747.464 112.925 747.464 105.672C747.464 98.504 749.043 92.1467 752.2 86.6C755.357 81.0533 759.667 76.7867 765.128 73.8C770.589 70.8133 776.691 69.32 783.432 69.32C790.173 69.32 796.275 70.8133 801.736 73.8C807.197 76.7867 811.507 81.0533 814.664 86.6C817.821 92.1467 819.4 98.504 819.4 105.672C819.4 112.84 817.779 119.197 814.536 124.744C811.293 130.291 806.856 134.6 801.224 137.672C795.677 140.659 789.533 142.152 782.792 142.152ZM782.792 129.48C786.547 129.48 790.045 128.584 793.288 126.792C796.616 125 799.304 122.312 801.352 118.728C803.4 115.144 804.424 110.792 804.424 105.672C804.424 100.552 803.443 96.2427 801.48 92.744C799.517 89.16 796.915 86.472 793.672 84.68C790.429 82.888 786.931 81.992 783.176 81.992C779.421 81.992 775.923 82.888 772.68 84.68C769.523 86.472 767.005 89.16 765.128 92.744C763.251 96.2427 762.312 100.552 762.312 105.672C762.312 113.267 764.232 119.155 768.072 123.336C771.997 127.432 776.904 129.48 782.792 129.48ZM843.267 80.84C845.742 77.5973 849.112 74.8667 853.379 72.648C857.646 70.4293 862.467 69.32 867.843 69.32C873.987 69.32 879.576 70.856 884.611 73.928C889.731 76.9147 893.742 81.1387 896.643 86.6C899.544 92.0613 900.995 98.3333 900.995 105.416C900.995 112.499 899.544 118.856 896.643 124.488C893.742 130.035 889.731 134.387 884.611 137.544C879.576 140.616 873.987 142.152 867.843 142.152C862.467 142.152 857.688 141.085 853.507 138.952C849.326 136.733 845.912 134.003 843.267 130.76V174.536H828.675V70.472H843.267V80.84ZM886.147 105.416C886.147 100.552 885.123 96.3707 883.075 92.872C881.112 89.288 878.467 86.6 875.139 84.808C871.896 82.9307 868.398 81.992 864.643 81.992C860.974 81.992 857.475 82.9307 854.147 84.808C850.904 86.6853 848.259 89.416 846.211 93C844.248 96.584 843.267 100.808 843.267 105.672C843.267 110.536 844.248 114.803 846.211 118.472C848.259 122.056 850.904 124.787 854.147 126.664C857.475 128.541 860.974 129.48 864.643 129.48C868.398 129.48 871.896 128.541 875.139 126.664C878.467 124.701 881.112 121.885 883.075 118.216C885.123 114.547 886.147 110.28 886.147 105.416Z" fill="white"/>
</svg>
